<?xml version="1.0" encoding="utf-8"?>
<!-- Generator: Adobe Illustrator 19.0.0, SVG Export Plug-In . SVG Version: 6.00 Build 0)  -->
<svg version="1.1" id="Layer_1" xmlns="http://www.w3.org/2000/svg" xmlns:xlink="http://www.w3.org/1999/xlink" x="0px" y="0px"
	 viewBox="0 0 1200 800" style="enable-background:new 0 0 1200 800;" xml:space="preserve">
<style type="text/css">
	.st0{fill:#DFE5E2;}
	.st1{fill:#CE8C84;}
	.st2{fill:url(#XMLID_19_);}
	.st3{fill:#F4F4F4;}
	.st4{fill:#333333;}
	.st5{fill:#D2D3D4;}
	.st6{fill:#424143;}
	.st7{fill:#F15F60;}
	.st8{fill:#F2F2F2;}
	.st9{fill:#FDF59F;}
	.st10{fill:#A7D493;}
	.st11{fill:#FFFFFF;}
	.st12{fill:#010101;}
	.st13{font-family:'MyriadPro-Regular';}
	.st14{font-size:18.0803px;}
	.st15{fill:#F7F29D;}
	.st16{fill:#9EB0DB;}
	.st17{fill:#48BA78;}
	.st18{fill:#F58D94;}
</style>
<polygon id="XMLID_2_" class="st0" points="751.6,113.5 1142.7,311.8 963,245 1184.3,412.6 1162.4,434.5 1047.4,372 1178.8,483.8 
	1017.8,420.2 1077,509 1079.1,532 855.7,459.7 1071.5,643.7 1007.9,607.6 1052.9,683.1 1032,744.5 897.3,685.3 940,726.9 
	800.9,665.6 892.9,762 771.3,689.7 783.4,762 534.7,654.7 609.2,702.8 607,743.4 488.7,687.5 520.5,716 476.7,734.6 150.3,585.6 
	176.6,584.5 91.1,500.2 117.4,506.8 9,345.8 101,402.7 91.1,335.9 102.1,305.2 130.6,320.6 69.2,252.6 113,247.2 36.3,137.6 
	153.6,193.5 87.8,123.4 154.6,134.3 117.4,97.1 305.8,147.5 285,120.1 461.4,147.5 403.3,116.8 398.9,88.3 447.1,100.4 379.2,42.3 
	478.9,61 453.7,27 "/>
<polygon id="XMLID_8_" class="st1" points="1110.6,42.1 698.3,138.5 777.7,167.7 449.2,273.7 566.4,336.2 499.1,365.3 534.6,384.6 
	523.5,428.7 627.1,477.8 403.4,604.7 407.1,642.3 701.4,669.4 830.7,571.1 807.4,565.2 958.6,526.6 929,516 1008.4,469.9 
	925.5,463.6 987.3,439.3 916.9,416.7 1069,366.5 1056.3,335.1 1003.2,333.4 1034.6,320.9 1040.8,302 970.8,286.4 1030.7,261.5 
	1073.4,201 1023,190.2 1111.8,147.1 1006,139.8 1059.3,114 1023,104.3 "/>
<polygon id="XMLID_3_" class="st1" points="157.5,490.4 484.6,535.8 435,492.3 703.9,507.2 636.1,428.8 693.3,426.5 672.8,402.5 
	693.2,373.5 631.6,308.7 830.1,279 837.9,250.6 631.2,148.4 509.5,183.8 524.8,194.5 403.9,180.3 422.4,196.3 351.7,207.6 
	410.3,235.4 358.5,235.8 403.5,272 278.6,265.9 279.1,292.3 317.3,308.5 290.9,308.8 281.1,320.8 327.7,351.8 277.1,353.1 
	229,385.2 262.7,407.2 186,413.6 261,448.6 214.9,452.5 238.6,469.7 "/>
<linearGradient id="XMLID_19_" gradientUnits="userSpaceOnUse" x1="638.6996" y1="638.6566" x2="633.6284" y2="168.0488">
	<stop  offset="0" style="stop-color:#FFFFFF"/>
	<stop  offset="1" style="stop-color:#000000"/>
</linearGradient>
<polygon id="XMLID_42_" class="st2" points="704.5,648.6 573.2,648.6 596.7,518.4 680.9,518.4 "/>
<path id="XMLID_20_" class="st3" d="M956.5,155.2v367c0,12-9.9,21.9-21.9,21.9H343.1c-12,0-21.9-9.9-21.9-21.9v-367
	c0-12,9.9-21.9,21.9-21.9h591.5C946.6,133.3,956.5,143.1,956.5,155.2z"/>
<path id="XMLID_23_" class="st4" d="M934.6,133.3H343c-12,0-21.9,9.9-21.9,21.9v314.4h635.3V155.2
	C956.5,143.1,946.6,133.3,934.6,133.3z M937.6,451.2H341.1V150.5h596.4V451.2z"/>
<rect id="XMLID_24_" x="341.1" y="150.5" class="st3" width="596.4" height="300.7"/>
<path id="XMLID_49_" class="st3" d="M739.2,637.5H538.4c-2.2,0-4,1.8-4,4v3.2c0,2.2,1.8,4,4,4h200.7c2.2,0,4-1.8,4-4v-3.2
	C743.1,639.3,741.4,637.5,739.2,637.5z"/>
<path id="XMLID_94_" class="st5" d="M934.3,452.4h-590c-2.8,0-5-2.2-5-5V154.5c0-2.8,2.2-5,5-5h590c2.8,0,5,2.2,5,5v292.8
	C939.3,450.1,937.1,452.4,934.3,452.4z"/>
<path id="XMLID_93_" class="st6" d="M924.1,447.3h-570c-4.6,0-8.4-3.7-8.4-8.4V192.2c0-4.6,3.7-8.4,8.4-8.4h570
	c4.6,0,8.4,3.7,8.4,8.4v246.7C932.5,443.5,928.8,447.3,924.1,447.3z"/>
<ellipse id="XMLID_92_" class="st7" cx="359.1" cy="167.2" rx="10.3" ry="9"/>
<ellipse id="XMLID_91_" class="st8" cx="365" cy="198.6" rx="5.4" ry="4.7"/>
<ellipse id="XMLID_90_" class="st8" cx="365" cy="214.1" rx="5.4" ry="4.7"/>
<ellipse id="XMLID_89_" class="st8" cx="365" cy="229.4" rx="5.4" ry="4.7"/>
<ellipse id="XMLID_88_" class="st8" cx="365" cy="244.9" rx="5.4" ry="4.7"/>
<ellipse id="XMLID_87_" class="st8" cx="365" cy="260.3" rx="5.4" ry="4.7"/>
<ellipse id="XMLID_86_" class="st8" cx="365" cy="275.7" rx="5.4" ry="4.7"/>
<ellipse id="XMLID_85_" class="st8" cx="365" cy="291.1" rx="5.4" ry="4.7"/>
<ellipse id="XMLID_84_" class="st8" cx="365" cy="306.6" rx="5.4" ry="4.7"/>
<ellipse id="XMLID_83_" class="st8" cx="365" cy="321.9" rx="5.4" ry="4.7"/>
<ellipse id="XMLID_82_" class="st8" cx="365" cy="337.4" rx="5.4" ry="4.7"/>
<ellipse id="XMLID_81_" class="st8" cx="365" cy="352.7" rx="5.4" ry="4.7"/>
<ellipse id="XMLID_80_" class="st8" cx="365" cy="368.2" rx="5.4" ry="4.7"/>
<ellipse id="XMLID_79_" class="st8" cx="365" cy="383.6" rx="5.4" ry="4.7"/>
<ellipse id="XMLID_78_" class="st8" cx="365" cy="399.1" rx="5.4" ry="4.7"/>
<ellipse id="XMLID_77_" class="st8" cx="365" cy="414.4" rx="5.4" ry="4.7"/>
<ellipse id="XMLID_76_" class="st8" cx="365" cy="429.9" rx="5.4" ry="4.7"/>
<ellipse id="XMLID_75_" class="st9" cx="387.3" cy="167.2" rx="10.3" ry="9"/>
<ellipse id="XMLID_74_" class="st10" cx="415.6" cy="167.2" rx="10.3" ry="9"/>
<path id="XMLID_73_" class="st11" d="M682.1,158.2H449c-1.4,0-2.6,1.2-2.6,2.6v12.8c0,1.4,1.2,2.6,2.6,2.6h233.1
	c1.4,0,2.6-1.2,2.6-2.6v-12.8C684.7,159.4,683.5,158.2,682.1,158.2z"/>
<path id="XMLID_72_" class="st11" d="M713.3,158.2h-20.9c-1.4,0-2.6,1.2-2.6,2.6v12.8c0,1.4,1.2,2.6,2.6,2.6h20.9
	c1.4,0,2.6-1.2,2.6-2.6v-12.8C715.9,159.4,714.8,158.2,713.3,158.2z"/>
<rect id="XMLID_71_" x="379" y="193.9" class="st11" width="3.3" height="240.8"/>
<text id="XMLID_70_" transform="matrix(1.1392 0 0 1 696.1807 172.1421)" class="st12 st13 st14">&lt;</text>
<path id="XMLID_69_" class="st11" d="M744.3,158.2h-20.9c-1.4,0-2.6,1.2-2.6,2.6v12.8c0,1.4,1.2,2.6,2.6,2.6h20.9
	c1.4,0,2.6-1.2,2.6-2.6v-12.8C746.8,159.4,745.7,158.2,744.3,158.2z"/>
<text id="XMLID_68_" transform="matrix(1.1392 0 0 1 728.5947 172.1421)" class="st12 st13 st14">&gt;</text>
<path id="XMLID_67_" class="st15" d="M493.2,203.3h-92.6c-2.5,0-4.5-2-4.5-4.5v-0.4c0-2.5,2-4.5,4.5-4.5h92.6c2.5,0,4.5,2,4.5,4.5
	v0.4C497.7,201.3,495.6,203.3,493.2,203.3z"/>
<path id="XMLID_66_" class="st16" d="M424.7,218.8h-24.2c-2.5,0-4.5-2-4.5-4.5v-0.4c0-2.5,2-4.5,4.5-4.5h24.2c2.5,0,4.5,2,4.5,4.5
	v0.4C429.3,216.8,427.2,218.8,424.7,218.8z"/>
<path id="XMLID_65_" class="st17" d="M528.8,218.8h-88.1c-2.5,0-4.5-2-4.5-4.5v-0.4c0-2.5,2-4.5,4.5-4.5h88.1c2.5,0,4.5,2,4.5,4.5
	v0.4C533.3,216.8,531.3,218.8,528.8,218.8z"/>
<path id="XMLID_64_" class="st15" d="M476,234.1h-75.5c-2.5,0-4.5-2-4.5-4.5v-0.4c0-2.5,2-4.5,4.5-4.5H476c2.5,0,4.5,2,4.5,4.5v0.4
	C480.5,232.1,478.5,234.1,476,234.1z"/>
<path id="XMLID_63_" class="st17" d="M463.6,249.6h-39.8c-2.5,0-4.5-2-4.5-4.5v-0.4c0-2.5,2-4.5,4.5-4.5h39.8c2.5,0,4.5,2,4.5,4.5
	v0.4C468.1,247.6,466.1,249.6,463.6,249.6z"/>
<path id="XMLID_62_" class="st17" d="M513.5,265h-62.1c-2.5,0-4.5-2-4.5-4.5v-0.4c0-2.5,2-4.5,4.5-4.5h62.1c2.5,0,4.5,2,4.5,4.5v0.4
	C518,262.9,516,265,513.5,265z"/>
<path id="XMLID_61_" class="st16" d="M484.4,280.5h-33.1c-2.5,0-4.5-2-4.5-4.5v-0.4c0-2.5,2-4.5,4.5-4.5h33.1c2.5,0,4.5,2,4.5,4.5
	v0.4C489,278.4,486.9,280.5,484.4,280.5z"/>
<path id="XMLID_60_" class="st18" d="M595.4,280.5h-33.1c-2.5,0-4.5-2-4.5-4.5v-0.4c0-2.5,2-4.5,4.5-4.5h33.1c2.5,0,4.5,2,4.5,4.5
	v0.4C599.9,278.4,597.9,280.5,595.4,280.5z"/>
<path id="XMLID_59_" class="st18" d="M547.8,280.5h-48.3c-2.5,0-4.5-2-4.5-4.5v-0.4c0-2.5,2-4.5,4.5-4.5h48.3c2.5,0,4.5,2,4.5,4.5
	v0.4C552.4,278.4,550.3,280.5,547.8,280.5z"/>
<path id="XMLID_58_" class="st17" d="M501.6,295.8h-50.2c-2.5,0-4.5-2-4.5-4.5v-0.4c0-2.5,2-4.5,4.5-4.5h50.2c2.5,0,4.5,2,4.5,4.5
	v0.4C506.1,293.8,504.1,295.8,501.6,295.8z"/>
<path id="XMLID_57_" class="st15" d="M583,295.8h-64.6c-2.5,0-4.5-2-4.5-4.5v-0.4c0-2.5,2-4.5,4.5-4.5H583c2.5,0,4.5,2,4.5,4.5v0.4
	C587.5,293.8,585.5,295.8,583,295.8z"/>
<path id="XMLID_56_" class="st17" d="M485.9,311.2h-62.1c-2.5,0-4.5-2-4.5-4.5v-0.4c0-2.5,2-4.5,4.5-4.5h62.1c2.5,0,4.5,2,4.5,4.5
	v0.4C490.4,309.2,488.4,311.2,485.9,311.2z"/>
<path id="XMLID_55_" class="st18" d="M485.7,357.5h-62.1c-2.5,0-4.5-2-4.5-4.5v-0.4c0-2.5,2-4.5,4.5-4.5h62.1c2.5,0,4.5,2,4.5,4.5
	v0.4C490.2,355.5,488.2,357.5,485.7,357.5z"/>
<path id="XMLID_54_" class="st15" d="M518.5,373h-94.9c-2.5,0-4.5-2-4.5-4.5V368c0-2.5,2-4.5,4.5-4.5h94.9c2.5,0,4.5,2,4.5,4.5v0.4
	C523,370.9,521,373,518.5,373z"/>
<path id="XMLID_53_" class="st15" d="M466.5,388.3h-66.3c-2.5,0-4.5-2-4.5-4.5v-0.4c0-2.5,2-4.5,4.5-4.5h66.3c2.5,0,4.5,2,4.5,4.5
	v0.4C471,386.2,469,388.3,466.5,388.3z"/>
<path id="XMLID_52_" class="st16" d="M447.7,403.8h-47.5c-2.5,0-4.5-2-4.5-4.5v-0.4c0-2.5,2-4.5,4.5-4.5h47.5c2.5,0,4.5,2,4.5,4.5
	v0.4C452.3,401.8,450.2,403.8,447.7,403.8z"/>
<path id="XMLID_11_" class="st16" d="M456.8,326.7h-33.1c-2.5,0-4.5-2-4.5-4.5v-0.4c0-2.5,2-4.5,4.5-4.5h33.1c2.5,0,4.5,2,4.5,4.5
	v0.4C461.4,324.7,459.3,326.7,456.8,326.7z"/>
<path id="XMLID_9_" class="st16" d="M533.7,357.8h-33.1c-2.5,0-4.5-2-4.5-4.5v-0.4c0-2.5,2-4.5,4.5-4.5h33.1c2.5,0,4.5,2,4.5,4.5
	v0.4C538.2,355.7,536.2,357.8,533.7,357.8z"/>
<path id="XMLID_7_" class="st18" d="M616.8,342.1h-33.1c-2.5,0-4.5-2-4.5-4.5v-0.4c0-2.5,2-4.5,4.5-4.5h33.1c2.5,0,4.5,2,4.5,4.5
	v0.4C621.3,340.1,619.3,342.1,616.8,342.1z"/>
<path id="XMLID_6_" class="st18" d="M520.2,326.7H472c-2.5,0-4.5-2-4.5-4.5v-0.4c0-2.5,2-4.5,4.5-4.5h48.3c2.5,0,4.5,2,4.5,4.5v0.4
	C524.8,324.7,522.7,326.7,520.2,326.7z"/>
<path id="XMLID_5_" class="st18" d="M474,342.1h-50.2c-2.5,0-4.5-2-4.5-4.5v-0.4c0-2.5,2-4.5,4.5-4.5H474c2.5,0,4.5,2,4.5,4.5v0.4
	C478.5,340,476.5,342.1,474,342.1z"/>
<path id="XMLID_4_" class="st15" d="M568.2,342.1h-77.4c-2.5,0-4.5-2-4.5-4.5v-0.4c0-2.5,2-4.5,4.5-4.5h77.4c2.5,0,4.5,2,4.5,4.5
	v0.4C572.7,340,570.7,342.1,568.2,342.1z"/>
<g id="XMLID_10_">
	<path id="XMLID_12_" class="st16" d="M798.6,660.1V490.8h38.9v11.7H813v145.9h24.4v11.7H798.6z"/>
	<path id="XMLID_14_" class="st16" d="M929.5,490.6v169.5h-38.9v-11.7H915V502.2h-24.4v-11.7H929.5z"/>
</g>
<polygon id="XMLID_16_" class="st1" points="253.4,189.4 209.9,183.8 264.5,218.8 "/>
<polygon id="XMLID_1_" class="st1" points="173.8,249.6 221.9,265 264.5,326.6 209.9,300.8 "/>
<polygon id="XMLID_18_" class="st1" points="348.8,568.1 237.2,551.4 287.7,575.4 "/>
</svg>
