<?xml version="1.0" encoding="utf-8"?>
<!-- Generator: Adobe Illustrator 19.0.0, SVG Export Plug-In . SVG Version: 6.00 Build 0)  -->
<svg version="1.1" id="Layer_1" xmlns="http://www.w3.org/2000/svg" xmlns:xlink="http://www.w3.org/1999/xlink" x="0px" y="0px"
	 viewBox="0 0 1200 800" style="enable-background:new 0 0 1200 800;" xml:space="preserve">
<style type="text/css">
	.st0{fill:#EAB7B8;}
	.st1{fill:#FCE0E4;}
	.st2{fill:#B1D4DD;}
	.st3{fill:#D99E9F;}
	.st4{fill:#FEF0F3;}
	.st5{fill:#9E6F6F;}
</style>
<polygon id="XMLID_40_" class="st0" points="1200,0 1200,296.6 1177,313 1182,232 1121,282 1108,248 1130,224 1110,231 1091,217 
	1118,154 1067,168 1102,85 958,194 951,169 1030,74 1002,74 1034,46 923,51 965,20 868.3,0 "/>
<polygon id="XMLID_42_" class="st1" points="532.3,720.1 527.9,745.7 482.3,800 0,800 0,517.3 34.6,454.6 46.8,510.1 177.9,482.3 
	91.2,621.2 183.4,605.7 192.3,621.2 169,633.4 227.9,619 236.8,633.4 131.2,696.8 206.8,666.8 160.1,701.2 375.7,622.3 375.7,647.9 
	349,669 413.4,643.4 443.4,653.4 332.3,736.8 405.7,701.2 382.3,736.8 432.3,715.7 423.4,727.9 483.4,714.6 473.4,730.1 "/>
<polygon id="XMLID_1_" class="st1" points="760.1,624.6 855.7,566.8 863.4,510.1 724.6,616.8 "/>
<polygon id="XMLID_17_" class="st2" points="178.3,191.9 77.1,239 63.2,294.5 212.8,203.4 "/>
<polygon id="XMLID_5_" class="st3" points="804.6,253.4 724.6,339 863.4,247.9 "/>
<polygon id="XMLID_4_" class="st4" points="369,302.3 323.4,366.8 369,351.2 459,267.9 "/>
<polygon id="XMLID_6_" class="st5" points="612.3,91.2 504.6,132.3 567.9,132.3 584.6,124.6 "/>
<polygon id="XMLID_8_" class="st0" points="283.4,609 354.6,584.6 304.6,574.6 "/>
<polygon id="XMLID_9_" class="st5" points="391.2,591.8 426.8,579 421.2,591.8 "/>
<polygon id="XMLID_16_" class="st0" points="113.4,472.8 77.4,484.2 83.5,471.6 "/>
<polygon id="XMLID_10_" class="st3" points="805.7,533.4 836.8,510.1 800.1,503.4 "/>
<polygon id="XMLID_34_" class="st0" points="211.3,0 0,114 0,99.6 126.7,0 "/>
<polygon id="XMLID_31_" class="st3" points="1200,509 1200,560.7 1112.3,652.3 "/>
<polygon id="XMLID_13_" class="st0" points="941.2,181.2 947.9,200.1 910.1,221.2 "/>
<polygon id="XMLID_11_" class="st1" points="1161.8,624.6 1057.9,754.6 1065.7,776.8 1176.8,681.2 "/>
<polygon id="XMLID_14_" class="st5" points="220.1,711.2 319,669 310.1,700.7 247.3,720.1 "/>
<polygon id="XMLID_18_" class="st2" points="755.7,47.9 713.4,82.3 755.7,71.2 "/>
<polygon id="XMLID_32_" class="st2" points="666.8,763.4 645,800 590.7,800 "/>
<polygon id="XMLID_30_" class="st2" points="1200,332.8 1200,400.8 1169.6,426.8 1189.6,320.1 "/>
<polygon id="XMLID_21_" class="st2" points="836.8,361.2 807.9,385.7 863.4,361.2 "/>
<polygon id="XMLID_22_" class="st4" points="366.8,477.9 504.6,334.6 666.8,262.3 643.4,301.2 724.6,267.9 633.4,380.1 685.7,361.2 
	671.2,385.7 740.1,361.2 746.8,373.4 701.2,421.2 740.1,400 755.7,405.7 680.1,484.2 745.7,471.6 677.9,546.8 542.3,591.8 
	600,525.7 565.7,533.4 576.8,510.1 532.3,524.6 509,518.4 524.6,503.4 447.9,533.4 470.1,510.1 409,533.4 459,477.9 377.9,533.4 
	354.6,527.9 391.2,477.9 354.6,497.9 "/>
<polygon id="XMLID_23_" class="st1" points="585.7,262.3 525.7,349 624,267.9 "/>
<polygon id="XMLID_20_" class="st1" points="624,541.2 558.4,609 558.4,637.9 702.3,541.2 "/>
<polygon id="XMLID_25_" class="st1" points="436.8,541.2 483.4,526.8 459,556.8 "/>
<polygon id="XMLID_26_" class="st1" points="1081.2,191.9 1046.8,279 1030.1,221.2 "/>
<polygon id="XMLID_27_" class="st1" points="971.2,373.4 919,407.9 964.6,400 "/>
<polygon id="XMLID_37_" class="st4" points="237.9,744.1 182.7,800 0,800 0,639.4 57.3,579 30.7,679.7 88.4,669 77.4,737.4 
	113.4,726.3 105.1,737.4 189.6,729.7 "/>
<polygon id="XMLID_24_" class="st1" points="1200,0 1200,82.1 1161.8,118.6 1169.6,54 1142.9,65.1 1147.3,21.9 1081.2,65.1 
	1090.7,47.9 1062.9,47.9 1099.6,18.6 1011.8,24.1 1041.7,0 "/>
</svg>
