<?xml version="1.0" encoding="utf-8"?>
<!-- Generator: Adobe Illustrator 19.0.0, SVG Export Plug-In . SVG Version: 6.00 Build 0)  -->
<svg version="1.1" id="Layer_1" xmlns="http://www.w3.org/2000/svg" xmlns:xlink="http://www.w3.org/1999/xlink" x="0px" y="0px"
	 viewBox="0 0 1200 800" style="enable-background:new 0 0 1200 800;" xml:space="preserve">
<style type="text/css">
	.st0{fill:#D5E5E2;}
	.st1{fill:#F9C4BC;}
	.st2{fill:url(#XMLID_4_);}
	.st3{fill:#F4F4F4;}
	.st4{fill:#333333;}
	.st5{fill:#CCCCCC;}
	.st6{fill:#DB7777;}
	.st7{fill:#ECB985;}
	.st8{fill:#78C478;}
	.st9{fill:#E5E5E5;}
	.st10{fill:#F69B97;}
	.st11{fill:#54B9B5;}
</style>
<polygon id="XMLID_2_" class="st0" points="441.6,113.5 50.6,311.8 230.2,245 9,412.6 30.9,434.5 145.9,372 14.4,483.8 175.5,420.2 
	116.3,509 114.1,532 337.6,459.7 121.8,643.7 185.3,607.6 140.4,683.1 161.2,744.5 296,685.3 253.2,726.9 392.3,665.6 300.3,762 
	421.9,689.7 409.9,762 658.5,654.7 584,702.8 586.2,743.4 704.5,687.5 672.8,716 716.6,734.6 1043,585.6 1016.7,584.5 1102.2,500.2 
	1075.9,506.8 1184.3,345.8 1092.3,402.7 1102.2,335.9 1091.2,305.2 1062.7,320.6 1124.1,252.6 1080.2,247.2 1156.9,137.6 
	1039.7,193.5 1105.4,123.4 1038.6,134.3 1075.9,97.1 887.5,147.5 908.3,120.1 731.9,147.5 790,116.8 794.4,88.3 746.2,100.4 
	814.1,42.3 714.4,61 739.6,27 "/>
<polygon id="XMLID_8_" class="st1" points="1109.8,453.3 706.3,611.8 756.2,541 417.7,642.6 480.1,521.8 406.4,536.4 425.2,499.5 
	390.2,468.7 448.9,367.2 186.5,390.2 167.8,356.4 400.2,162.5 566.3,170.2 550.1,188.6 700,133.3 681.3,159.4 775,152.1 
	708.8,205.6 775,190.2 728.8,250.2 886.2,204 893.7,237.9 850,270.2 883.7,262.5 899.9,274.8 850,328.7 914.9,314.8 986.1,341 
	949.9,379.5 1049.9,364.1 964.9,431.8 1024.9,422.6 999.9,451.8 "/>
<linearGradient id="XMLID_4_" gradientUnits="userSpaceOnUse" x1="638.6996" y1="638.6566" x2="633.6284" y2="168.0488">
	<stop  offset="0" style="stop-color:#FFFFFF"/>
	<stop  offset="1" style="stop-color:#000000"/>
</linearGradient>
<polygon id="XMLID_42_" class="st2" points="704.5,648.6 573.2,648.6 596.7,518.4 680.9,518.4 "/>
<path id="XMLID_20_" class="st3" d="M956.5,155.2v367c0,12-9.9,21.9-21.9,21.9H343.1c-12,0-21.9-9.9-21.9-21.9v-367
	c0-12,9.9-21.9,21.9-21.9h591.5C946.6,133.3,956.5,143.1,956.5,155.2z"/>
<path id="XMLID_18_" class="st4" d="M956.5,155.2v314.4H321.1V155.2c0-12,9.9-21.9,21.9-21.9h591.5
	C946.6,133.3,956.5,143.1,956.5,155.2z"/>
<path id="XMLID_50_" class="st3" d="M937.6,150.5v300.7h-27.4v-25.7c0-7.2-5.9-13.1-13.1-13.1H683.2c-7.2,0-13.1,5.9-13.1,13.1v25.7
	H341.1V150.5H937.6z"/>
<rect id="XMLID_10_" x="341.1" y="150.5" class="st5" width="596.4" height="18.9"/>
<circle id="XMLID_12_" class="st6" cx="352.8" cy="160" r="4.4"/>
<circle id="XMLID_14_" class="st7" cx="366.9" cy="160" r="4.4"/>
<circle id="XMLID_15_" class="st8" cx="381.5" cy="160" r="4.4"/>
<path id="XMLID_13_" class="st9" d="M756.8,154.3H521.9c-2.3,0-4.1,1.9-4.1,4.1v3c0,2.3,1.9,4.1,4.1,4.1h234.9
	c2.3,0,4.1-1.9,4.1-4.1v-3C760.9,156.2,759.1,154.3,756.8,154.3z"/>
<path id="XMLID_17_" class="st9" d="M928.8,154.3H920c-2.3,0-4.1,1.9-4.1,4.1v3c0,2.3,1.9,4.1,4.1,4.1h8.8c2.3,0,4.1-1.9,4.1-4.1v-3
	C932.9,156.2,931.1,154.3,928.8,154.3z"/>
<circle id="XMLID_16_" class="st4" cx="924.4" cy="160" r="0.8"/>
<circle id="XMLID_22_" class="st4" cx="920.6" cy="160" r="0.8"/>
<circle id="XMLID_21_" class="st4" cx="928.2" cy="160" r="0.8"/>
<path id="XMLID_24_" d="M380.6,201.3c3.8-0.6,8.3-1,13.2-1c8.9,0,15.3,2.1,19.5,6c4.3,3.9,6.8,9.5,6.8,17.3c0,7.9-2.4,14.3-6.9,18.8
	c-4.5,4.5-12,6.9-21.3,6.9c-4.4,0-8.2-0.2-11.3-0.6V201.3z M386.8,244c1.6,0.3,3.9,0.4,6.3,0.4c13.3,0,20.5-7.4,20.5-20.5
	c0.1-11.4-6.4-18.6-19.5-18.6c-3.2,0-5.7,0.3-7.3,0.6V244z"/>
<path id="XMLID_27_" d="M431.9,232.7c0.1,8.5,5.6,12,11.9,12c4.5,0,7.2-0.8,9.6-1.8l1.1,4.5c-2.2,1-6,2.1-11.5,2.1
	c-10.7,0-17-7-17-17.5c0-10.5,6.2-18.7,16.3-18.7c11.3,0,14.3,10,14.3,16.3c0,1.3-0.1,2.3-0.2,2.9H431.9z M450.3,228.2
	c0.1-4-1.6-10.2-8.7-10.2c-6.4,0-9.2,5.9-9.7,10.2H450.3z"/>
<path id="XMLID_30_" d="M463.4,242.5c1.9,1.2,5.2,2.5,8.3,2.5c4.6,0,6.7-2.3,6.7-5.2c0-3-1.8-4.7-6.4-6.4c-6.2-2.2-9.2-5.7-9.2-9.8
	c0-5.6,4.5-10.2,12-10.2c3.5,0,6.6,1,8.5,2.1l-1.6,4.6c-1.4-0.9-3.9-2-7.1-2c-3.7,0-5.8,2.1-5.8,4.7c0,2.9,2.1,4.2,6.6,5.9
	c6,2.3,9.1,5.3,9.1,10.5c0,6.1-4.7,10.4-13,10.4c-3.8,0-7.3-0.9-9.7-2.4L463.4,242.5z"/>
<path id="XMLID_32_" d="M499.6,204.5c0.1,2.1-1.5,3.9-4,3.9c-2.2,0-3.8-1.7-3.8-3.9c0-2.2,1.6-3.9,3.9-3.9
	C498.1,200.6,499.6,202.3,499.6,204.5z M492.6,248.9v-34.7h6.3v34.7H492.6z"/>
<path id="XMLID_35_" d="M539.2,214.3c-0.1,2.5-0.3,5.3-0.3,9.5v20.1c0,7.9-1.6,12.8-4.9,15.8c-3.4,3.2-8.2,4.2-12.6,4.2
	c-4.2,0-8.7-1-11.5-2.9l1.6-4.8c2.3,1.4,5.9,2.7,10.2,2.7c6.4,0,11.2-3.4,11.2-12.1V243h-0.1c-1.9,3.2-5.7,5.8-11,5.8
	c-8.6,0-14.7-7.3-14.7-16.9c0-11.7,7.7-18.4,15.6-18.4c6,0,9.3,3.2,10.8,6h0.1l0.3-5.2H539.2z M532.7,227.9c0-1.1-0.1-2-0.4-2.9
	c-1.1-3.7-4.2-6.7-8.8-6.7c-6,0-10.3,5.1-10.3,13.1c0,6.8,3.4,12.5,10.2,12.5c3.9,0,7.4-2.4,8.7-6.4c0.4-1.1,0.5-2.3,0.5-3.4V227.9z
	"/>
<path id="XMLID_38_" d="M548.9,223.6c0-3.6-0.1-6.5-0.3-9.4h5.6l0.4,5.7h0.1c1.7-3.3,5.7-6.5,11.5-6.5c4.8,0,12.2,2.9,12.2,14.7
	v20.7h-6.3v-20c0-5.6-2.1-10.2-8-10.2c-4.2,0-7.4,2.9-8.4,6.4c-0.3,0.8-0.4,1.9-0.4,2.9v20.8h-6.3V223.6z"/>
<path id="XMLID_40_" class="st10" d="M587.2,245.2c0-2.6,1.8-4.5,4.3-4.5c2.5,0,4.2,1.9,4.2,4.5c0,2.6-1.6,4.5-4.3,4.5
	C588.9,249.7,587.2,247.8,587.2,245.2z"/>
<circle id="XMLID_19_" class="st10" cx="495.7" cy="204.5" r="4.1"/>
<path id="XMLID_23_" class="st10" d="M608.7,387.9H392.6c-6.6,0-12-5.4-12-12v-79c0-6.6,5.4-12,12-12h216.1c6.6,0,12,5.4,12,12v79
	C620.7,382.5,615.3,387.9,608.7,387.9z"/>
<path id="XMLID_47_" class="st5" d="M614.4,425.8H420.2c-3.5,0-6.3-2.8-6.3-6.3v-1.2c0-3.5,2.8-6.3,6.3-6.3h194.3
	c3.5,0,6.3,2.8,6.3,6.3v1.2C620.7,423,617.9,425.8,614.4,425.8z"/>
<path id="XMLID_48_" class="st5" d="M574.5,448.1H386.9c-3.5,0-6.3-2.8-6.3-6.3v-1.2c0-3.5,2.8-6.3,6.3-6.3h187.6
	c3.5,0,6.3,2.8,6.3,6.3v1.2C580.8,445.2,577.9,448.1,574.5,448.1z"/>
<path id="XMLID_51_" class="st11" d="M910.2,425.5v25.7H670v-25.7c0-7.2,5.9-13.1,13.1-13.1H897
	C904.3,412.4,910.2,418.3,910.2,425.5z"/>
<path id="XMLID_3_" class="st5" d="M895.7,308.5H715.8c-3.3,0-6-2.7-6-6v-1.1c0-3.3,2.7-6,6-6h179.9c3.3,0,6,2.7,6,6v1.1
	C901.7,305.8,899,308.5,895.7,308.5z"/>
<path id="XMLID_45_" class="st5" d="M895.7,370.6H715.8c-3.3,0-6-2.7-6-6v-1.1c0-3.3,2.7-6,6-6h179.9c3.3,0,6,2.7,6,6v1.1
	C901.7,367.9,899,370.6,895.7,370.6z"/>
<path id="XMLID_43_" class="st5" d="M895.7,328.2H685.3c-3.3,0-6-2.7-6-6v-1.1c0-3.3,2.7-6,6-6h210.4c3.3,0,6,2.7,6,6v1.1
	C901.7,325.5,899,328.2,895.7,328.2z"/>
<path id="XMLID_46_" class="st5" d="M845.7,390.7H685.3c-3.3,0-6-2.7-6-6v-1.1c0-3.3,2.7-6,6-6h160.3c3.3,0,6,2.7,6,6v1.1
	C851.7,388,849,390.7,845.7,390.7z"/>
<path id="XMLID_44_" class="st5" d="M764.6,349.4h-79.3c-3.3,0-6-2.7-6-6v-1.1c0-3.3,2.7-6,6-6h79.3c3.3,0,6,2.7,6,6v1.1
	C770.6,346.7,767.9,349.4,764.6,349.4z"/>
<path id="XMLID_49_" class="st3" d="M739.2,637.5H538.4c-2.2,0-4,1.8-4,4v3.2c0,2.2,1.8,4,4,4h200.7c2.2,0,4-1.8,4-4v-3.2
	C743.1,639.3,741.4,637.5,739.2,637.5z"/>
</svg>
