<?xml version="1.0" encoding="utf-8"?>
<!-- Generator: Adobe Illustrator 19.0.0, SVG Export Plug-In . SVG Version: 6.00 Build 0)  -->
<svg version="1.1" id="Layer_1" xmlns="http://www.w3.org/2000/svg" xmlns:xlink="http://www.w3.org/1999/xlink" x="0px" y="0px"
	 viewBox="0 0 700 700" style="enable-background:new 0 0 700 700;" xml:space="preserve">
<style type="text/css">
	.st0{fill:#E0E0E0;}
</style>
<path id="XMLID_21_" class="st0" d="M691.9,332.8c-1.2-25-5.1-49.2-11.3-72.5c-10.2-37.8-26.7-73-48.3-104.4
	c-16.8-24.4-36.6-46.5-59-65.8c-23.4-20.1-49.5-37.2-77.8-50.5c4.7,30.8,7.1,87.1-24.9,135.3C509.8,34.6,413.2,13.2,403,11.3
	c-0.6-0.1-0.9-0.1-0.9-0.1c-3.5-0.5-7.1-1-10.7-1.5c0,0,0,0,0,0s58.7,39.6,16.4,99.9C396.5,16.8,288,12.9,288,12.9
	c-40.3,7.3-78.1,21.8-112.1,41.9c-27.1,16-51.8,35.7-73.4,58.3C43.8,174.5,7.7,257.8,7.7,349.6c0,91.7,36.1,175,94.8,236.5
	c21.6,22.6,46.3,42.3,73.4,58.3c39.7,23.5,84.4,39.2,132.3,45c13.7,1.7,27.7,2.5,41.8,2.5c10.7,0,21.2-0.5,31.6-1.4
	C492,680.3,587.2,617.8,642.2,528c15-24.5,27-51.1,35.5-79.1c9.5-31.4,14.6-64.8,14.6-99.3C692.3,344,692.2,338.4,691.9,332.8z
	 M358.7,521.2h-63.3V405.9c0-35.3-16.3-51.6-44.3-51.6c-30.4,0-52.4,18.7-52.4,58.9v108h-63.3V219.9h63.3v105.6
	c17.1-17.1,41.4-26,69.4-26c51.6,0,90.6,30,90.6,96.7V521.2z M537.6,471.3c22.9-3.5,38.3-12.8,51-29.1l38.8,31.1
	c-16.6,25.9-44.9,42.6-83.8,48.5c-74.7,11.3-130.4-28.3-140.2-92.5c-9.8-64.6,32.5-118.7,98.3-128.7c63.4-9.6,118.9,25.5,129.4,94.9
	c0.7,4.8,1,11.8,1.4,17l-163.4,24.8C479.3,463.3,504.7,476.3,537.6,471.3z M509.4,347.8c-28.5,4.3-46.4,24.7-46.6,53.1l106.4-16.2
	C560.7,358.1,537.5,343.6,509.4,347.8z"/>
</svg>
